<svg width="17" height="17" viewBox="0 0 17 17" fill="none" xmlns="http://www.w3.org/2000/svg">
<path d="M15.7714 14.6354L12.8274 11.6914C13.9751 10.2533 14.5288 8.43046 14.3747 6.597C14.2206 4.76354 13.3705 3.05864 11.9988 1.83234C10.6271 0.606041 8.838 -0.0486035 6.99879 0.0028149C5.15959 0.0542333 3.40985 0.807813 2.10883 2.10883C0.807813 3.40985 0.0542333 5.15959 0.0028149 6.99879C-0.0486035 8.838 0.606041 10.6271 1.83234 11.9988C3.05864 13.3705 4.76354 14.2206 6.597 14.3747C8.43046 14.5288 10.2533 13.9751 11.6914 12.8274L14.6354 15.7714C14.7098 15.8464 14.7982 15.9059 14.8957 15.9465C14.9932 15.9871 15.0978 16.008 15.2034 16.008C15.309 16.008 15.4136 15.9871 15.511 15.9465C15.6085 15.9059 15.697 15.8464 15.7714 15.7714C15.8464 15.697 15.9059 15.6085 15.9465 15.511C15.9871 15.4136 16.008 15.309 16.008 15.2034C16.008 15.0978 15.9871 14.9932 15.9465 14.8957C15.9059 14.7982 15.8464 14.7098 15.7714 14.6354ZM1.60339 7.20339C1.60746 6.28594 1.83688 5.38355 2.27148 4.57556C2.70607 3.76757 3.33253 3.07873 4.09576 2.56962C4.85899 2.0605 5.73561 1.7467 6.64855 1.65581C7.56149 1.56492 8.48278 1.69972 9.33141 2.04837C10.18 2.39701 10.93 2.94882 11.5154 3.65526C12.1007 4.36171 12.5036 5.20115 12.6885 6.09978C12.8733 6.99841 12.8346 7.92871 12.5756 8.80886C12.3167 9.68901 11.8455 10.4921 11.2034 11.1474C10.417 11.9276 9.41683 12.457 8.32947 12.6687C7.24212 12.8804 6.1164 12.7648 5.09473 12.3366C4.07306 11.9085 3.20134 11.1869 2.58984 10.2632C1.97834 9.33946 1.65454 8.25515 1.65939 7.14739L1.60339 7.20339Z" fill="white" fill-opacity="0.87"/>
</svg>
