<svg width="16" height="12" viewBox="0 0 16 12" fill="none" xmlns="http://www.w3.org/2000/svg">
<path d="M13.2764 0H1.84925C0.829188 0 0 0.829188 0 1.84925V9.65926C0 10.6793 0.829188 11.5085 1.84925 11.5085H13.2733C14.2933 11.5085 15.1225 10.6793 15.1225 9.65926V1.85237C15.1256 0.832317 14.2965 0 13.2764 0ZM14.2808 9.65926C14.2808 10.2131 13.8302 10.6637 13.2764 10.6637H1.84925C1.29541 10.6637 0.844833 10.2131 0.844833 9.65926V1.85237C0.844833 1.29854 1.29541 0.847962 1.84925 0.847962H13.2733C13.8271 0.847962 14.2777 1.29854 14.2777 1.85237V9.65926H14.2808Z" fill="black" fill-opacity="0.54"/>
<path d="M9.53736 5.65728L13.2358 2.34052C13.4079 2.18407 13.4236 1.91811 13.2671 1.74288C13.1107 1.57079 12.8447 1.55514 12.6695 1.71159L7.56921 6.28934L6.57418 5.4007C6.57105 5.39757 6.56793 5.39444 6.56793 5.39131C6.54602 5.36941 6.52412 5.35063 6.49909 5.33186L2.45015 1.70846C2.27492 1.55201 2.00896 1.56766 1.85251 1.74288C1.69605 1.91811 1.7117 2.18407 1.88692 2.34052L5.62922 5.68544L1.90257 9.17428C1.7336 9.33386 1.72422 9.59983 1.8838 9.77192C1.96828 9.85954 2.08092 9.90647 2.19357 9.90647C2.29682 9.90647 2.40008 9.86892 2.48144 9.79383L6.26441 6.25492L7.29073 7.17172C7.37208 7.24368 7.47221 7.2781 7.57234 7.2781C7.67247 7.2781 7.77572 7.24055 7.85395 7.16859L8.90843 6.22363L12.6695 9.79696C12.7509 9.87518 12.8572 9.91273 12.9605 9.91273C13.0731 9.91273 13.1827 9.86892 13.2671 9.78131C13.4267 9.61235 13.4205 9.34325 13.2515 9.18367L9.53736 5.65728Z" fill="black" fill-opacity="0.54"/>
</svg>
