<svg width="8" height="17" viewBox="0 0 8 17" fill="none" xmlns="http://www.w3.org/2000/svg">
<path d="M0.255464 8.90343H1.99144V16.1238C1.99144 16.2663 2.10576 16.3818 2.24687 16.3818H5.19029C5.3314 16.3818 5.44573 16.2663 5.44573 16.1238V8.93746H7.44141C7.57116 8.93746 7.68035 8.83909 7.69517 8.70887L7.99827 6.05071C8.00659 5.97759 7.98367 5.90434 7.93523 5.84946C7.88676 5.79455 7.81738 5.76312 7.74457 5.76312H5.44585V4.09684C5.44585 3.59455 5.71353 3.33984 6.2416 3.33984C6.31686 3.33984 7.74457 3.33984 7.74457 3.33984C7.88568 3.33984 8 3.22427 8 3.08177V0.641805C8 0.499242 7.88568 0.383742 7.74457 0.383742H5.67323C5.65863 0.383023 5.62618 0.381836 5.57836 0.381836C5.21897 0.381836 3.96973 0.453117 2.98292 1.37027C1.88955 2.38665 2.04155 3.60355 2.07786 3.81455V5.76305H0.255433C0.114323 5.76305 0 5.87855 0 6.02112V8.64534C3.09316e-05 8.78787 0.114354 8.90343 0.255464 8.90343Z" fill="black" fill-opacity="0.54"/>
</svg>
