<svg width="16" height="16" viewBox="0 0 16 16" fill="none" xmlns="http://www.w3.org/2000/svg">
<path d="M10.5553 0.381836H4.47871C2.00914 0.381836 0 2.39097 0 4.86054V10.9371C0 13.4067 2.00914 15.4158 4.47871 15.4158H10.5553C13.0249 15.4158 15.034 13.4067 15.034 10.9371V4.86054C15.034 2.39097 13.0248 0.381836 10.5553 0.381836ZM13.5216 10.9371C13.5216 12.5753 12.1935 13.9034 10.5553 13.9034H4.47871C2.84049 13.9034 1.51242 12.5753 1.51242 10.9371V4.86054C1.51242 3.2223 2.84049 1.89426 4.47871 1.89426H10.5553C12.1935 1.89426 13.5216 3.2223 13.5216 4.86054V10.9371Z" fill="black" fill-opacity="0.54"/>
<path d="M7.51699 4.0105C5.37296 4.0105 3.62866 5.7548 3.62866 7.8988C3.62866 10.0428 5.37296 11.7871 7.51699 11.7871C9.66102 11.7871 11.4053 10.0428 11.4053 7.8988C11.4053 5.75477 9.66102 4.0105 7.51699 4.0105ZM7.51699 10.2747C6.2048 10.2747 5.14108 9.21101 5.14108 7.89882C5.14108 6.58664 6.20483 5.52292 7.51699 5.52292C8.82918 5.52292 9.8929 6.58664 9.8929 7.89882C9.8929 9.21099 8.82915 10.2747 7.51699 10.2747Z" fill="black" fill-opacity="0.54"/>
<path d="M11.4129 4.97136C11.9275 4.97136 12.3446 4.55421 12.3446 4.03963C12.3446 3.52506 11.9275 3.10791 11.4129 3.10791C10.8983 3.10791 10.4812 3.52506 10.4812 4.03963C10.4812 4.55421 10.8983 4.97136 11.4129 4.97136Z" fill="black" fill-opacity="0.54"/>
</svg>
