<svg width="18" height="18" viewBox="0 0 18 18" fill="none" xmlns="http://www.w3.org/2000/svg">
<path d="M4.04727 5.57471H0.556802C0.40189 5.57471 0.276367 5.70029 0.276367 5.85514V17.0685C0.276367 17.2234 0.40189 17.3489 0.556802 17.3489H4.04727C4.20218 17.3489 4.3277 17.2234 4.3277 17.0685V5.85514C4.3277 5.70029 4.20218 5.57471 4.04727 5.57471Z" fill="black" fill-opacity="0.54"/>
<path d="M2.30327 0C1.03324 0 0 1.03211 0 2.30075C0 3.56994 1.03324 4.60244 2.30327 4.60244C3.57229 4.60244 4.60469 3.56988 4.60469 2.30075C4.60474 1.03211 3.57229 0 2.30327 0Z" fill="black" fill-opacity="0.54"/>
<path d="M12.9257 5.29565C11.5238 5.29565 10.4875 5.89831 9.85892 6.58308V5.85479C9.85892 5.69993 9.7334 5.57435 9.57849 5.57435H6.23576C6.08084 5.57435 5.95532 5.69993 5.95532 5.85479V17.0681C5.95532 17.2231 6.08084 17.3486 6.23576 17.3486H9.71859C9.8735 17.3486 9.99903 17.2231 9.99903 17.0681V11.5201C9.99903 9.65059 10.5068 8.92224 11.8101 8.92224C13.2294 8.92224 13.3422 10.0899 13.3422 11.6163V17.0682C13.3422 17.2231 13.4677 17.3486 13.6226 17.3486H17.1068C17.2617 17.3486 17.3872 17.2231 17.3872 17.0682V10.9175C17.3872 8.13753 16.8571 5.29565 12.9257 5.29565Z" fill="black" fill-opacity="0.54"/>
</svg>
