<svg width="15" height="16" viewBox="0 0 15 16" fill="none" xmlns="http://www.w3.org/2000/svg">
<path d="M12.5426 9.03121C12.2174 8.6926 11.8251 8.51156 11.4094 8.51156C10.997 8.51156 10.6014 8.68924 10.2628 9.02786L9.20336 10.0839C9.11619 10.037 9.02902 9.99342 8.9452 9.94983C8.82451 9.88949 8.71052 9.83249 8.61329 9.77214C7.62091 9.14185 6.71906 8.32046 5.85408 7.25767C5.435 6.72796 5.15338 6.28206 4.94887 5.82945C5.22378 5.578 5.47858 5.3165 5.72668 5.06505C5.82055 4.97118 5.91443 4.87395 6.0083 4.78008C6.71235 4.07602 6.71235 3.16411 6.0083 2.46006L5.09303 1.54479C4.9891 1.44086 4.88181 1.33357 4.78124 1.22629C4.58008 1.01843 4.36886 0.803858 4.15094 0.6027C3.82574 0.280847 3.43683 0.109863 3.02781 0.109863C2.61879 0.109863 2.22318 0.280847 1.88792 0.6027C1.88456 0.606053 1.88456 0.606053 1.88121 0.609405L0.741316 1.75936C0.31218 2.18849 0.0674377 2.7115 0.0137956 3.31833C-0.0666676 4.2973 0.221659 5.20921 0.442932 5.80598C0.986058 7.27108 1.7974 8.6289 3.00769 10.0839C4.47615 11.8374 6.24298 13.222 8.26127 14.1976C9.03237 14.5631 10.0616 14.9955 11.2116 15.0693C11.282 15.0727 11.3557 15.076 11.4228 15.076C12.1973 15.076 12.8477 14.7977 13.3573 14.2446C13.3606 14.2378 13.3673 14.2345 13.3707 14.2278C13.545 14.0166 13.7462 13.8255 13.9574 13.621C14.1015 13.4835 14.2491 13.3393 14.3932 13.1885C14.7251 12.8432 14.8995 12.4408 14.8995 12.0285C14.8995 11.6127 14.7218 11.2138 14.3832 10.8785L12.5426 9.03121ZM13.7428 12.5615C13.7395 12.5615 13.7395 12.5649 13.7428 12.5615C13.6121 12.7023 13.478 12.8297 13.3338 12.9706C13.1159 13.1784 12.8946 13.3963 12.6867 13.6411C12.3481 14.0032 11.9492 14.1741 11.4262 14.1741C11.3759 14.1741 11.3222 14.1741 11.2719 14.1708C10.2762 14.1071 9.35087 13.7182 8.65688 13.3863C6.75929 12.4677 5.09303 11.1635 3.70839 9.51064C2.56515 8.13271 1.80075 6.85871 1.2945 5.49084C0.982706 4.65603 0.868716 4.00562 0.919006 3.39209C0.952532 2.99983 1.1034 2.67463 1.38167 2.39636L2.52492 1.25311C2.68919 1.09889 2.86353 1.01507 3.03452 1.01507C3.24573 1.01507 3.41672 1.14247 3.524 1.24976C3.52735 1.25311 3.5307 1.25646 3.53406 1.25982C3.73857 1.45092 3.93302 1.64872 4.13753 1.85994C4.24146 1.96722 4.34875 2.0745 4.45603 2.18514L5.3713 3.10041C5.72668 3.45579 5.72668 3.78435 5.3713 4.13973C5.27407 4.23695 5.1802 4.33418 5.08297 4.42805C4.80135 4.71638 4.53314 4.98459 4.24146 5.24609C4.23476 5.2528 4.22805 5.25615 4.2247 5.26286C3.93637 5.55118 3.99002 5.8328 4.05036 6.0239C4.05372 6.03396 4.05707 6.04402 4.06042 6.05408C4.29846 6.63073 4.63372 7.17386 5.14332 7.82091L5.14667 7.82427C6.072 8.96416 7.04761 9.85261 8.12381 10.5332C8.26127 10.6204 8.40208 10.6908 8.53618 10.7578C8.65688 10.8182 8.77087 10.8752 8.86809 10.9355C8.8815 10.9422 8.89491 10.9523 8.90832 10.959C9.02231 11.016 9.1296 11.0428 9.24023 11.0428C9.5185 11.0428 9.69284 10.8685 9.74984 10.8115L10.8964 9.66486C11.0104 9.55087 11.1915 9.41341 11.4027 9.41341C11.6105 9.41341 11.7815 9.54416 11.8855 9.65815C11.8888 9.66151 11.8888 9.66151 11.8922 9.66486L13.7395 11.5122C14.0848 11.8541 14.0848 12.2062 13.7428 12.5615Z" fill="black" fill-opacity="0.54"/>
</svg>
