<svg width="16" height="15" viewBox="0 0 16 15" fill="none" xmlns="http://www.w3.org/2000/svg">
<path d="M16 2.03922C15.405 2.3203 14.771 2.50661 14.11 2.59707C14.79 2.15984 15.309 1.47276 15.553 0.644605C14.919 1.05168 14.219 1.33922 13.473 1.49968C12.871 0.809375 12.013 0.381836 11.077 0.381836C9.261 0.381836 7.799 1.96922 7.799 3.91522C7.799 4.19522 7.821 4.46445 7.875 4.72076C5.148 4.57753 2.735 3.16999 1.114 1.02584C0.831 1.55461 0.665 2.15984 0.665 2.81137C0.665 4.03476 1.25 5.11922 2.122 5.74707C1.595 5.7363 1.078 5.57153 0.64 5.31199C0.64 5.32276 0.64 5.33676 0.64 5.35076C0.64 7.06737 1.777 8.49322 3.268 8.82168C3.001 8.9003 2.71 8.93799 2.408 8.93799C2.198 8.93799 1.986 8.92507 1.787 8.87768C2.212 10.2766 3.418 11.3051 4.852 11.3385C3.736 12.2786 2.319 12.8451 0.785 12.8451C0.516 12.8451 0.258 12.8321 0 12.7966C1.453 13.8057 3.175 14.3818 5.032 14.3818C11.068 14.3818 14.368 8.99722 14.368 4.32984C14.368 4.17368 14.363 4.02291 14.356 3.87322C15.007 3.37568 15.554 2.7543 16 2.03922Z" fill="#03A9F4"/>
</svg>
