<svg width="17" height="12" viewBox="0 0 17 12" fill="none" xmlns="http://www.w3.org/2000/svg">
<path d="M16.1058 2.18347C15.9162 1.479 15.3608 0.923706 14.6565 0.734007C13.3696 0.381836 8.22214 0.381836 8.22214 0.381836C8.22214 0.381836 3.07482 0.381836 1.78796 0.720583C1.09716 0.910156 0.528194 1.47913 0.338621 2.18347C0 3.4702 0 6.13878 0 6.13878C0 6.13878 0 8.82078 0.338621 10.0941C0.52832 10.7984 1.08361 11.3539 1.78808 11.5435C3.08837 11.8957 8.22227 11.8957 8.22227 11.8957C8.22227 11.8957 13.3696 11.8957 14.6565 11.557C15.3609 11.3674 15.9162 10.812 16.1059 10.1076C16.4445 8.82078 16.4445 6.15233 16.4445 6.15233C16.4445 6.15233 16.4581 3.4702 16.1058 2.18347Z" fill="black" fill-opacity="0.54"/>
<path d="M6.58325 8.60401L10.8637 6.13868L6.58325 3.67334V8.60401Z" fill="white"/>
</svg>
